<?xml version="1.0" standalone="no"?>
<!DOCTYPE svg PUBLIC "-//W3C//DTD SVG 20010904//EN"
 "http://www.w3.org/TR/2001/REC-SVG-20010904/DTD/svg10.dtd">
<svg version="1.0" xmlns="http://www.w3.org/2000/svg"
 width="900.000000pt" height="912.000000pt" viewBox="0 0 900.000000 912.000000"
 preserveAspectRatio="xMidYMid meet">
<metadata>
Created by potrace 1.10, written by Peter Selinger 2001-2011
</metadata>
<g transform="translate(0.000000,912.000000) scale(0.100000,-0.100000)"
fill="#1C71AF" stroke="none">
<path d="M3275 9074 c-149 -30 -189 -48 -255 -114 -51 -51 -81 -103 -104 -181
-14 -47 -16 -193 -15 -1283 0 -1133 2 -1235 17 -1281 24 -70 55 -124 96 -168
42 -44 44 -60 14 -81 -20 -14 -23 -13 -44 9 -36 39 -132 95 -187 110 -74 20
-2421 21 -2512 1 -119 -25 -236 -134 -274 -255 -16 -51 -15 -2562 1 -2610 17
-51 65 -121 104 -154 19 -16 34 -35 34 -44 0 -8 -15 -33 -33 -56 -18 -23 -42
-62 -53 -87 -18 -43 -19 -80 -19 -1320 l0 -1275 30 -54 c35 -64 115 -137 176
-162 41 -17 119 -18 1287 -18 l1243 -1 62 31 c34 16 78 45 97 64 l35 34 50
-44 c65 -58 112 -80 210 -100 71 -14 213 -15 1260 -13 1095 3 1183 5 1223 21
69 27 114 52 156 86 l38 30 47 -37 c60 -49 94 -66 161 -83 83 -21 2422 -21
2495 0 132 38 206 99 267 221 l23 45 0 1295 0 1295 -27 51 c-32 60 -96 130
-153 166 -95 60 -60 58 -1355 58 -1060 0 -1191 -2 -1249 -16 -80 -20 -113 -36
-168 -81 -36 -28 -46 -32 -63 -23 -11 6 -20 15 -20 20 0 6 -6 10 -14 10 -35 0
-21 44 31 98 7 7 13 18 13 24 0 6 6 19 13 27 42 50 41 42 45 1291 2 856 0
1214 -9 1263 -12 73 -45 146 -87 190 l-27 28 30 28 c45 40 80 90 106 151 l24
55 0 1270 0 1270 -39 78 c-62 123 -140 182 -279 211 -67 14 -214 16 -1229 15
-634 -1 -1162 -3 -1173 -5z m2382 -197 c57 -13 90 -37 128 -95 l25 -38 0
-1243 1 -1244 -27 -39 c-34 -48 -67 -72 -119 -87 -60 -16 -2383 -15 -2439 1
-22 7 -57 29 -78 50 -71 71 -68 4 -68 1324 0 1329 -5 1246 74 1322 28 28 55
43 86 50 70 15 2351 14 2417 -1z m-2928 -2968 c80 -25 120 -52 146 -100 l25
-47 0 -1231 c0 -1191 -1 -1233 -19 -1269 -27 -53 -60 -79 -124 -102 -55 -20
-85 -20 -1220 -20 -1311 0 -1233 -4 -1305 74 -22 24 -45 61 -51 82 -8 27 -11
416 -11 1236 0 1096 1 1201 17 1240 32 82 67 114 147 133 69 17 2341 21 2395
4z m1806 -457 c66 -17 108 -35 145 -62 19 -14 47 -33 62 -43 46 -29 115 -131
150 -225 30 -77 32 -242 4 -317 -38 -103 -78 -174 -183 -328 -40 -60 -73 -111
-73 -114 0 -3 -13 -22 -30 -43 -16 -21 -30 -41 -30 -45 0 -3 -20 -33 -45 -65
-25 -32 -45 -68 -45 -79 0 -20 5 -21 164 -21 90 0 178 -3 195 -6 17 -4 50 -23
72 -43 34 -30 43 -45 49 -85 10 -69 -3 -115 -44 -153 -56 -52 -83 -55 -475
-51 -392 3 -390 3 -445 68 -22 26 -26 41 -26 91 0 69 13 99 91 209 30 42 85
120 122 175 38 55 104 152 148 215 133 190 172 252 206 323 53 108 42 174 -36
236 -32 26 -48 31 -91 31 -72 0 -106 -24 -158 -109 -23 -39 -42 -75 -42 -80 0
-17 -61 -60 -100 -72 -72 -22 -151 23 -185 106 -32 74 6 202 94 319 53 71 205
165 268 167 15 0 37 4 48 9 24 11 134 6 190 -8z m-1477 -2329 c8 -13 -2 -29
-47 -75 -32 -32 -63 -58 -69 -58 -28 0 -10 47 33 89 25 24 45 47 45 52 0 16
29 10 38 -8z m2613 -155 c50 -17 98 -56 120 -100 19 -37 19 -69 19 -1273 0
-1366 6 -1258 -67 -1326 -27 -27 -53 -40 -91 -48 -74 -15 -2330 -15 -2404 0
-40 8 -63 21 -94 51 -79 76 -75 -9 -72 1348 3 1115 4 1208 20 1241 21 44 80
93 128 107 53 15 2397 15 2441 0z m2914 0 c25 -7 45 -16 45 -20 0 -5 11 -13
25 -18 14 -5 28 -18 32 -27 3 -10 13 -26 22 -37 14 -16 16 -135 19 -1205 2
-652 0 -1219 -3 -1260 -7 -72 -9 -75 -54 -121 -38 -38 -59 -50 -100 -59 -77
-16 -2340 -16 -2411 1 -68 16 -130 75 -147 141 -16 60 -18 2376 -3 2447 20 90
55 128 140 157 51 17 2371 18 2435 1z m-7342 -1028 c147 -148 273 -270 280
-270 7 0 134 122 282 270 267 267 270 270 311 270 35 0 47 -5 68 -31 31 -36
32 -53 9 -96 -10 -18 -132 -147 -271 -289 -174 -177 -252 -262 -250 -275 3
-18 33 -50 371 -395 188 -193 192 -201 133 -260 -63 -63 -59 -66 -366 241
-151 151 -281 275 -287 275 -7 0 -135 -124 -286 -275 -305 -306 -303 -305
-365 -244 -66 65 -56 79 291 430 119 121 217 225 217 231 0 6 -113 125 -250
265 -138 139 -260 268 -270 286 -27 44 -25 76 7 109 21 22 36 28 67 28 41 0
46 -5 309 -270z"/>
<path d="M4398 8331 l-33 -29 -3 -344 c-1 -188 -6 -346 -11 -351 -4 -4 -144
-8 -309 -7 -327 1 -354 -3 -387 -53 -25 -38 -11 -94 29 -118 29 -18 54 -19
338 -19 168 0 313 -3 322 -6 14 -5 16 -44 16 -335 0 -262 3 -337 14 -364 23
-54 73 -70 122 -39 48 32 49 40 54 399 l5 340 325 5 c179 3 333 9 342 13 17 9
48 65 48 87 0 23 -41 64 -78 77 -27 10 -112 13 -327 13 -159 -1 -296 -1 -302
0 -10 0 -13 74 -13 338 0 303 -2 340 -17 362 -46 66 -86 75 -135 31z"/>
<path d="M1241 5333 c-45 -6 -78 -28 -112 -77 -51 -70 -32 -171 44 -229 28
-21 50 -28 115 -33 70 -6 81 -9 86 -28 3 -11 6 -276 6 -588 0 -643 0 -640 67
-695 36 -30 49 -34 101 -35 73 -1 121 25 148 80 18 35 19 76 19 768 l0 730
-25 36 c-44 65 -64 71 -249 74 -91 1 -181 0 -200 -3z"/>
<path d="M4096 2172 c-10 -16 12 -118 34 -162 33 -65 96 -126 163 -160 54 -27
70 -30 151 -30 113 0 169 20 243 85 72 63 121 162 123 248 0 30 -10 33 -43 15
-15 -9 -69 -13 -168 -13 -110 0 -150 -3 -163 -14 -13 -11 -22 -11 -39 -3 -42
20 -63 24 -143 27 -44 2 -97 6 -116 10 -20 4 -38 3 -42 -3z"/>
<path d="M3665 1518 c-22 -26 -26 -39 -21 -67 3 -21 16 -45 31 -58 l26 -23
749 0 748 0 31 25 c50 43 49 76 -2 133 l-20 22 -758 0 -757 0 -27 -32z"/>
<path d="M4097 1046 c-16 -41 16 -143 67 -213 54 -75 134 -123 236 -143 45 -9
68 -8 125 6 39 10 77 24 86 31 8 7 19 13 23 13 5 0 25 14 46 30 69 55 128 170
130 253 0 27 -1 28 -32 20 -18 -4 -87 -7 -152 -5 -94 2 -130 -1 -169 -15 -46
-17 -50 -17 -79 0 -23 13 -53 17 -133 17 -58 0 -107 4 -110 10 -9 15 -32 12
-38 -4z"/>
<path d="M7175 2434 c-164 -44 -262 -123 -342 -280 -30 -59 -36 -91 -34 -180
1 -53 60 -119 116 -130 91 -17 150 21 206 134 38 76 67 105 120 121 128 38
253 -108 193 -227 -24 -49 -125 -112 -179 -112 -38 0 -108 -60 -123 -105 -17
-50 -9 -116 19 -154 22 -30 56 -47 159 -81 76 -25 112 -56 130 -111 19 -58 1
-122 -49 -173 -37 -37 -42 -39 -103 -39 -53 -1 -71 4 -94 22 -37 29 -48 50
-76 141 -47 156 -166 213 -272 129 -54 -42 -71 -120 -52 -230 12 -67 19 -88
48 -139 4 -8 13 -26 19 -40 14 -34 114 -125 174 -160 153 -87 315 -93 464 -17
147 75 231 180 271 339 18 68 0 266 -27 300 -6 7 -13 25 -16 39 -4 14 -18 42
-32 63 -31 46 -31 56 1 103 26 39 31 49 66 138 30 77 35 192 12 268 -48 159
-150 290 -269 346 -106 49 -227 62 -330 35z"/>
</g>
</svg>
